<?xml version="1.0" encoding="UTF-8" standalone="no"?>
<!-- Created with Inkscape (http://www.inkscape.org/) -->

<svg
   width="512"
   height="512"
   viewBox="0 0 135.46666 135.46667"
   version="1.1"
   id="svg1"
   xml:space="preserve"
   sodipodi:docname="miningdutch.svg"
   inkscape:version="1.3.2 (091e20e, 2023-11-25, custom)"
   xmlns:inkscape="http://www.inkscape.org/namespaces/inkscape"
   xmlns:sodipodi="http://sodipodi.sourceforge.net/DTD/sodipodi-0.dtd"
   xmlns:xlink="http://www.w3.org/1999/xlink"
   xmlns="http://www.w3.org/2000/svg"
   xmlns:svg="http://www.w3.org/2000/svg"><sodipodi:namedview
     id="namedview1"
     pagecolor="#ffffff"
     bordercolor="#000000"
     borderopacity="0.25"
     inkscape:showpageshadow="2"
     inkscape:pageopacity="0.0"
     inkscape:pagecheckerboard="0"
     inkscape:deskcolor="#d1d1d1"
     inkscape:document-units="mm"
     inkscape:zoom="0.51717104"
     inkscape:cx="448.59434"
     inkscape:cy="41.57232"
     inkscape:window-width="1920"
     inkscape:window-height="1017"
     inkscape:window-x="-8"
     inkscape:window-y="-8"
     inkscape:window-maximized="1"
     inkscape:current-layer="layer1" /><defs
     id="defs1"><linearGradient
       id="linearGradient5"
       inkscape:collect="always"><stop
         style="stop-color:#2e74b5;stop-opacity:1;"
         offset="0"
         id="stop5" /><stop
         style="stop-color:#2e74b5;stop-opacity:0;"
         offset="1"
         id="stop6" /></linearGradient><linearGradient
       inkscape:collect="always"
       xlink:href="#linearGradient5"
       id="linearGradient7"
       gradientUnits="userSpaceOnUse"
       x1="23.922489"
       y1="-85.325676"
       x2="24.038336"
       y2="-113.18073"
       gradientTransform="translate(154.57326,-46.222066)" /><clipPath
       clipPathUnits="userSpaceOnUse"
       id="clipPath7"><circle
         style="fill:#c5daf8;fill-opacity:1;stroke:#32324e;stroke-width:2.18593;stroke-dasharray:none;stroke-opacity:1"
         id="circle7"
         cx="221.8076"
         cy="115.82066"
         r="60.493961"
         transform="scale(1,-1)" /></clipPath></defs><g
     inkscape:label="Layer 1"
     inkscape:groupmode="layer"
     id="layer1"><circle
       style="fill:#c5daf8;fill-opacity:1;stroke:#32324e;stroke-width:2.18593;stroke-dasharray:none;stroke-opacity:1"
       id="path3"
       cx="67.234337"
       cy="69.598602"
       r="60.493961" /><ellipse
       style="opacity:0.262069;fill:#17140d;fill-opacity:1;stroke:none;stroke-width:0.824376;stroke-dasharray:none;stroke-opacity:1"
       id="path5"
       cx="69.095009"
       cy="82.208588"
       rx="30.387331"
       ry="1.5374542" /><circle
       style="fill:#17140d;fill-opacity:1;stroke:none;stroke-width:2;stroke-dasharray:none;stroke-opacity:1"
       id="path4"
       cx="68.04245"
       cy="49.660084"
       r="32.742229" /><path
       id="path2"
       style="fill:#eec524;fill-opacity:1;stroke-width:0.455798"
       d="m 65.777443,26.404032 c -0.663268,0 -4.046181,1.956682 -6.288934,3.637452 -0.521529,0.390848 -2.782663,2.297728 -3.900316,3.289327 -2.286229,2.028383 -2.13654,1.929588 -3.026464,1.997385 l -0.791414,0.06028 -0.06737,0.864201 c -0.03701,0.475329 -0.145562,0.962748 -0.241194,1.083016 -0.09564,0.120266 -1.096403,1.282935 -2.223971,2.583644 -2.701804,3.116635 -2.9738,3.44012 -4.05907,4.829289 -1.965102,2.515332 -3.298577,5.224842 -2.686813,5.459598 0.160176,0.06146 0.988486,-0.692766 3.53782,-3.221493 7.861335,-7.797799 7.312701,-7.313216 8.015448,-7.081291 0.450861,0.148805 11.741734,11.4185 12.063678,12.041073 0.136348,0.263643 0.160454,0.453377 0.08291,0.650324 -0.174448,0.443037 -8.229972,8.508194 -8.692154,8.702514 -0.296786,0.124822 -0.729722,0.153896 -1.620048,0.10935 -1.06354,-0.05324 -1.37276,-0.01896 -2.481187,0.273927 -2.067758,0.546526 -4.516622,1.781488 -4.81021,2.425837 l -0.145321,0.318928 1.126119,1.097856 c 4.716269,4.597926 6.606486,6.508761 6.521175,6.591605 l 0.202565,0.231769 c 0,-0.06796 0.132207,-0.174047 0.293956,-0.235547 0.544823,-0.207135 1.832929,-2.511887 2.427953,-4.344301 0.291825,-0.898685 0.335391,-1.233588 0.354488,-2.716733 0.01225,-0.941318 0.0796,-1.797213 0.152172,-1.929546 0.07172,-0.130825 2.023505,-2.123737 4.337245,-4.428635 4.829666,-4.811234 4.520396,-4.611522 5.614582,-3.624029 0.34538,0.311701 2.717299,2.633588 5.27093,5.159512 10.079266,9.969943 10.943744,10.795531 11.301943,10.795531 0.08808,0 0.403035,-0.22393 0.70003,-0.497684 0.384044,-0.354006 0.540094,-0.591971 0.540094,-0.824167 0,-0.369728 0.641455,0.307014 -8.861748,-9.350953 -3.459048,-3.515391 -6.570479,-6.704158 -6.914293,-7.086246 -0.666689,-0.740906 -0.776768,-1.142942 -0.436929,-1.596727 0.382733,-0.511056 5.18054,-5.249378 5.379046,-5.312382 0.352031,-0.111725 1.102877,0.159936 1.547968,0.560114 0.232149,0.208728 0.889935,0.834302 1.461767,1.390161 0.618254,0.600978 1.139842,1.01047 1.286994,1.01047 0.15859,0 0.911291,-0.665342 2.095841,-1.852529 1.0166,-1.018866 2.67991,-2.629017 3.6961,-3.578096 2.438368,-2.277335 3.015466,-3.106602 3.466687,-4.981921 0.209764,-0.87178 0.191399,-1.367531 -0.13072,-3.516386 -0.376988,-2.514834 -0.882159,-3.367569 -2.28922,-3.864514 -1.291837,-0.456245 -3.241122,-0.81055 -4.52238,-0.822036 -1.275287,-0.0114 -2.061591,0.227701 -3.206887,0.995158 l -8.346148,7.624685 c -0.11257,0.160522 0.03463,1.094565 0.187958,1.247891 0.02553,0.02127 0.05857,0.0891 0.07865,0.114934 0.606193,0.566015 1.170981,1.174493 1.748424,1.769621 0.51507,0.439483 1.001349,1.017991 1.483195,1.528889 l -1.32185,1.204323 c -0.963833,1.037653 -4.381986,4.468402 -4.633558,4.627898 -0.08798,0.05579 -0.331398,0.102266 -0.540801,0.103167 -0.342781,0.0018 -0.968022,-0.587334 -6.271033,-5.908773 -3.239661,-3.250923 -5.940457,-6.043033 -6.001809,-6.204613 -0.188088,-0.495354 0.254156,-1.228642 1.558804,-2.585058 2.292558,-2.383516 4.497904,-4.662638 6.313665,-6.52471 1.676504,-1.719272 2.09181,-2.291339 1.663626,-2.291339 z M 55.729517,62.584007 c 1.406058,0.01588 2.182397,0.782293 2.400628,2.337511 0.104944,0.747751 0.09075,1.09185 -0.0815,1.967226 -0.256251,1.302336 -0.795001,2.687518 -1.286763,3.308405 -0.30311,0.382732 -0.444748,0.46591 -0.793768,0.46591 -0.363592,0 -0.55536,-0.126098 -1.331274,-0.874335 -2.433484,-2.34696 -4.05844,-4.048113 -4.213588,-4.411205 -0.153879,-0.360042 -0.149306,-0.439442 0.04499,-0.77022 0.356775,-0.607379 1.756447,-1.295166 3.642635,-1.789864 0.611283,-0.16033 1.149951,-0.23861 1.618638,-0.233428 z" /><g
       id="g7"
       transform="matrix(0.98198476,0,0,0.98198476,1.9443211,2.3094467)"><text
         xml:space="preserve"
         style="font-style:normal;font-variant:normal;font-weight:normal;font-stretch:normal;font-size:43.5321px;font-family:'Times New Roman';-inkscape-font-specification:'Times New Roman, ';letter-spacing:0px;fill:#2e74b5;fill-opacity:1;stroke:none;stroke-width:17.6284;stroke-dasharray:none;stroke-opacity:1"
         x="22.009722"
         y="100.22117"
         id="text1"><tspan
           sodipodi:role="line"
           id="tspan1"
           style="font-style:normal;font-variant:normal;font-weight:normal;font-stretch:normal;font-family:'Times New Roman';-inkscape-font-specification:'Times New Roman, ';fill:#2e74b5;fill-opacity:1;stroke:none;stroke-width:17.6284"
           x="22.009722"
           y="100.22117">MD</tspan></text><text
         xml:space="preserve"
         style="font-style:normal;font-variant:normal;font-weight:normal;font-stretch:normal;font-size:43.5321px;font-family:'Times New Roman';-inkscape-font-specification:'Times New Roman, ';letter-spacing:0px;fill:url(#linearGradient7);fill-opacity:1;stroke:none;stroke-width:17.6284;stroke-dasharray:none;stroke-opacity:1"
         x="175.96428"
         y="-146.43831"
         id="text1-2-0"
         transform="matrix(1,0,0,-1,-152.95004,-47.066957)"
         clip-path="url(#clipPath7)"><tspan
           sodipodi:role="line"
           id="tspan1-8-9"
           style="font-style:normal;font-variant:normal;font-weight:normal;font-stretch:normal;font-family:'Times New Roman';-inkscape-font-specification:'Times New Roman, ';fill:url(#linearGradient7);fill-opacity:1;stroke:none;stroke-width:17.6284"
           x="175.96428"
           y="-146.43831">MD</tspan></text></g></g></svg>
